<svg width="64" height="64" viewBox="0 0 64 64" fill="none" xmlns="http://www.w3.org/2000/svg">
<path d="M50.666 21.332C55.0844 21.332 58.666 17.7503 58.666 13.332C58.666 8.91376 55.0844 5.33203 50.666 5.33203C46.2476 5.33203 42.666 8.91376 42.666 13.332C42.666 17.7503 46.2476 21.332 50.666 21.332Z" fill="#B2E36D" style="fill:#B2E36D;fill:color(display-p3 0.6975 0.8913 0.4285);fill-opacity:1;"/>
<path d="M50.6673 25.3333C44.054 25.3333 38.6673 19.9467 38.6673 13.3333C38.6673 11.4133 39.174 9.62667 39.974 8H20.054C10.854 8 5.33398 13.4933 5.33398 22.72V43.92C5.33398 53.1733 10.854 58.6667 20.054 58.6667H41.254C50.4807 58.6667 55.974 53.1733 55.974 43.9467V24.0267C54.374 24.8267 52.5873 25.3333 50.6673 25.3333Z" fill="#7BCB0C" style="fill:#7BCB0C;fill:color(display-p3 0.4824 0.7961 0.0471);fill-opacity:1;"/>
<path d="M31.3333 37.332H18C16.9067 37.332 16 36.4254 16 35.332C16 34.2387 16.9067 33.332 18 33.332H31.3333C32.4267 33.332 33.3333 34.2387 33.3333 35.332C33.3333 36.4254 32.4267 37.332 31.3333 37.332Z" fill="black" fill-opacity="0.3" style="fill:black;fill-opacity:0.3;"/>
<path d="M42 48H18C16.9067 48 16 47.0933 16 46C16 44.9067 16.9067 44 18 44H42C43.0933 44 44 44.9067 44 46C44 47.0933 43.0933 48 42 48Z" fill="black" fill-opacity="0.3" style="fill:black;fill-opacity:0.3;"/>
</svg>
