<svg width="24" height="24" viewBox="0 0 24 24" fill="none" xmlns="http://www.w3.org/2000/svg">
<path d="M12.0001 14.8799C11.0901 14.8799 10.3501 14.1399 10.3501 13.2299V10.7599C10.3501 9.84988 11.0901 9.10986 12.0001 9.10986C12.9101 9.10986 13.6501 9.84988 13.6501 10.7599V13.2299C13.6501 14.1399 12.9101 14.8799 12.0001 14.8799Z" stroke="white" style="stroke:white;stroke-opacity:1;" stroke-linecap="round"/>
<path d="M16.9805 13.4699C16.7805 16.0499 14.6205 18.0699 12.0005 18.0699C9.24049 18.0699 7.00049 15.8299 7.00049 13.0699V10.9299C7.00049 8.16997 9.24049 5.92997 12.0005 5.92997C14.5905 5.92997 16.7205 7.89996 16.9705 10.4199" stroke="white" style="stroke:white;stroke-opacity:1;" stroke-linecap="round"/>
<path d="M15 1.99943H17C20 1.99943 22 3.99943 22 6.99943V8.99943" stroke="white" style="stroke:white;stroke-opacity:1;" stroke-miterlimit="10" stroke-linecap="round" stroke-linejoin="round"/>
<path d="M1.99951 8.99943V6.99943C1.99951 3.99943 3.99951 1.99943 6.99951 1.99943H8.99951" stroke="white" style="stroke:white;stroke-opacity:1;" stroke-miterlimit="10" stroke-linecap="round" stroke-linejoin="round"/>
<path d="M15 21.9999H17C20 21.9999 22 19.9999 22 16.9999V14.9999" stroke="white" style="stroke:white;stroke-opacity:1;" stroke-miterlimit="10" stroke-linecap="round" stroke-linejoin="round"/>
<path d="M1.99951 14.9999V16.9999C1.99951 19.9999 3.99951 21.9999 6.99951 21.9999H8.99951" stroke="white" style="stroke:white;stroke-opacity:1;" stroke-miterlimit="10" stroke-linecap="round" stroke-linejoin="round"/>
</svg>
