<svg width="24" height="24" viewBox="0 0 24 24" fill="none" xmlns="http://www.w3.org/2000/svg">
<path d="M18 6.99951L18 16.9995C18 17.6195 17.98 18.1695 17.91 18.6595C17.62 21.2895 16.38 21.9995 13 21.9995L11 21.9995C7.62 21.9995 6.38 21.2895 6.09 18.6595C6.02 18.1695 6 17.6195 6 16.9995L6 6.99951C6 6.37951 6.02 5.82951 6.09 5.33951C6.38 2.70951 7.62 1.99951 11 1.99951L13 1.99951C16.38 1.99951 17.62 2.70951 17.91 5.33951C17.98 5.82951 18 6.37951 18 6.99951Z" stroke="white" style="stroke:white;stroke-opacity:1;" stroke-linecap="round" stroke-linejoin="round"/>
<path d="M5.99984 17.0006C5.99984 17.6206 6.01984 18.1706 6.08984 18.6606C5.94984 18.6706 5.81984 18.6706 5.66984 18.6706L5.32984 18.6706C2.66984 18.6706 1.99984 18.0006 1.99984 15.3306L1.99984 8.67057C1.99984 6.00057 2.66984 5.33057 5.32984 5.33057L5.66984 5.33057C5.81984 5.33057 5.94984 5.33057 6.08984 5.34057C6.01984 5.83057 5.99984 6.38057 5.99984 7.00057L5.99984 17.0006Z" stroke="white" style="stroke:white;stroke-opacity:1;" stroke-linecap="round" stroke-linejoin="round"/>
<path d="M22 8.67057L22 15.3306C22 18.0006 21.33 18.6706 18.67 18.6706L18.33 18.6706C18.18 18.6706 18.05 18.6706 17.91 18.6606C17.98 18.1706 18 17.6206 18 17.0006L18 7.00057C18 6.38057 17.98 5.83057 17.91 5.34057C18.05 5.33057 18.18 5.33057 18.33 5.33057L18.67 5.33057C21.33 5.33057 22 6.00057 22 8.67057Z" stroke="white" style="stroke:white;stroke-opacity:1;" stroke-linecap="round" stroke-linejoin="round"/>
<path d="M8 12.5L9.55556 12.5L10.6667 15L12.4444 11L13.7778 13.5L16 13.5" stroke="white" style="stroke:white;stroke-opacity:1;" stroke-linecap="round" stroke-linejoin="round"/>
</svg>
