<svg width="40" height="40" viewBox="0 0 40 40" fill="none" xmlns="http://www.w3.org/2000/svg">
<g clip-path="url(#clip0_2227_3541)">
<mask id="path-1-inside-1_2227_3541" fill="white">
<path d="M27.367 11.5493C27.8189 11.5493 28.2542 11.7181 28.5866 12.022C28.919 12.3259 29.1241 12.7428 29.1613 13.19L29.1675 13.3371V26.8211C29.1675 27.2698 28.9976 27.702 28.6915 28.0321C28.3854 28.3621 27.9655 28.5658 27.5152 28.6028L27.367 28.6089L26.9246 28.6079V28.8796C26.9243 29.0736 26.8499 29.2603 26.7163 29.402C26.5828 29.5436 26.4001 29.6297 26.2051 29.6428C26.0101 29.6559 25.8174 29.5951 25.6659 29.4726C25.5143 29.3501 25.4152 29.175 25.3886 28.9828L25.3814 28.8796V28.6079H15.0518V28.8796C15.0515 29.0736 14.977 29.2603 14.8435 29.402C14.7099 29.5436 14.5272 29.6297 14.3323 29.6428C14.1373 29.6559 13.9446 29.5951 13.793 29.4726C13.6415 29.3501 13.5424 29.175 13.5158 28.9828L13.5086 28.8796V28.6079H12.8727C12.4209 28.6078 11.9855 28.4391 11.6532 28.1352C11.3208 27.8313 11.1156 27.4143 11.0784 26.9672L11.0723 26.8211V13.3371C11.0723 12.8884 11.2422 12.4562 11.5483 12.1261C11.8544 11.7961 12.2743 11.5924 12.7246 11.5554L12.8727 11.5493H27.367ZM27.6242 25.4276H12.6155V26.8211C12.6156 26.8785 12.6351 26.9342 12.6709 26.9793C12.7068 27.0243 12.7568 27.056 12.8131 27.0693L12.8727 27.0765H27.367C27.4252 27.0766 27.4816 27.0572 27.5272 27.0214C27.5728 26.9856 27.6048 26.9355 27.6181 26.8793L27.6242 26.8211V25.4276ZM27.367 13.0817H12.8727C12.8146 13.0816 12.7582 13.101 12.7126 13.1368C12.667 13.1726 12.635 13.2227 12.6217 13.2789L12.6155 13.3371V23.8953H27.6242V13.3371C27.6242 13.2797 27.6047 13.224 27.5688 13.1789C27.533 13.1339 27.4829 13.1022 27.4267 13.0889L27.367 13.0817ZM22.3463 14.5916C22.5073 14.685 22.6288 14.833 22.6884 15.0084C22.7479 15.1838 22.7415 15.3747 22.6704 15.5458L22.6231 15.6388L18.9501 21.898C18.8525 22.0675 18.6934 22.1936 18.5053 22.2505C18.3172 22.3074 18.1144 22.2909 17.9381 22.2043C17.7619 22.1177 17.6256 21.9676 17.5571 21.7846C17.4886 21.6016 17.493 21.3996 17.5694 21.2197L17.6157 21.1267L21.2897 14.8674C21.3407 14.7805 21.4085 14.7044 21.4892 14.6435C21.5699 14.5825 21.6619 14.538 21.7599 14.5124C21.8579 14.4868 21.9601 14.4806 22.0605 14.4942C22.161 14.5078 22.2577 14.5409 22.3453 14.5916H22.3463ZM23.6077 20.4964L24.0552 20.6875C24.2075 20.7436 24.2198 20.7426 24.3155 20.666C24.3945 20.603 24.4852 20.556 24.5824 20.5277C24.6797 20.4995 24.7816 20.4905 24.8823 20.5014C24.9831 20.5122 25.0807 20.5427 25.1696 20.591C25.2585 20.6393 25.3369 20.7046 25.4004 20.783C25.4639 20.8614 25.5112 20.9515 25.5397 21.048C25.5681 21.1446 25.5771 21.2458 25.5662 21.3458C25.5553 21.4459 25.5246 21.5428 25.4759 21.631C25.4273 21.7193 25.3616 21.7972 25.2826 21.8602C24.7239 22.3067 24.1447 22.3537 23.5202 22.1259L23.369 22.0656L23.1426 21.9665C22.7105 21.7724 22.6045 21.7622 22.371 21.9103C22.2854 21.9643 22.1899 22.001 22.09 22.0184C21.9902 22.0358 21.8878 22.0334 21.7888 22.0115C21.6898 21.9896 21.5962 21.9485 21.5132 21.8907C21.4302 21.8328 21.3595 21.7593 21.3051 21.6743C21.2507 21.5893 21.2137 21.4945 21.1962 21.3954C21.1788 21.2962 21.1811 21.1945 21.2032 21.0963C21.2253 20.998 21.2666 20.905 21.3249 20.8226C21.3831 20.7402 21.4572 20.6699 21.5428 20.6159C22.2702 20.1583 22.8371 20.1797 23.6077 20.4964ZM17.5859 15.1974C17.7814 15.1975 17.9695 15.2712 18.1124 15.4038C18.2553 15.5363 18.3421 15.7177 18.3554 15.9114C18.3688 16.1051 18.3076 16.2965 18.1842 16.4471C18.0608 16.5977 17.8845 16.6962 17.6908 16.7227L17.5859 16.7298H15.4376C15.2421 16.7298 15.0539 16.656 14.9111 16.5235C14.7682 16.3909 14.6814 16.2095 14.668 16.0158C14.6547 15.8222 14.7159 15.6307 14.8393 15.4801C14.9627 15.3295 15.139 15.231 15.3327 15.2046L15.4376 15.1974H17.5859Z"/>
</mask>
<path d="M27.367 11.5493C27.8189 11.5493 28.2542 11.7181 28.5866 12.022C28.919 12.3259 29.1241 12.7428 29.1613 13.19L29.1675 13.3371V26.8211C29.1675 27.2698 28.9976 27.702 28.6915 28.0321C28.3854 28.3621 27.9655 28.5658 27.5152 28.6028L27.367 28.6089L26.9246 28.6079V28.8796C26.9243 29.0736 26.8499 29.2603 26.7163 29.402C26.5828 29.5436 26.4001 29.6297 26.2051 29.6428C26.0101 29.6559 25.8174 29.5951 25.6659 29.4726C25.5143 29.3501 25.4152 29.175 25.3886 28.9828L25.3814 28.8796V28.6079H15.0518V28.8796C15.0515 29.0736 14.977 29.2603 14.8435 29.402C14.7099 29.5436 14.5272 29.6297 14.3323 29.6428C14.1373 29.6559 13.9446 29.5951 13.793 29.4726C13.6415 29.3501 13.5424 29.175 13.5158 28.9828L13.5086 28.8796V28.6079H12.8727C12.4209 28.6078 11.9855 28.4391 11.6532 28.1352C11.3208 27.8313 11.1156 27.4143 11.0784 26.9672L11.0723 26.8211V13.3371C11.0723 12.8884 11.2422 12.4562 11.5483 12.1261C11.8544 11.7961 12.2743 11.5924 12.7246 11.5554L12.8727 11.5493H27.367ZM27.6242 25.4276H12.6155V26.8211C12.6156 26.8785 12.6351 26.9342 12.6709 26.9793C12.7068 27.0243 12.7568 27.056 12.8131 27.0693L12.8727 27.0765H27.367C27.4252 27.0766 27.4816 27.0572 27.5272 27.0214C27.5728 26.9856 27.6048 26.9355 27.6181 26.8793L27.6242 26.8211V25.4276ZM27.367 13.0817H12.8727C12.8146 13.0816 12.7582 13.101 12.7126 13.1368C12.667 13.1726 12.635 13.2227 12.6217 13.2789L12.6155 13.3371V23.8953H27.6242V13.3371C27.6242 13.2797 27.6047 13.224 27.5688 13.1789C27.533 13.1339 27.4829 13.1022 27.4267 13.0889L27.367 13.0817ZM22.3463 14.5916C22.5073 14.685 22.6288 14.833 22.6884 15.0084C22.7479 15.1838 22.7415 15.3747 22.6704 15.5458L22.6231 15.6388L18.9501 21.898C18.8525 22.0675 18.6934 22.1936 18.5053 22.2505C18.3172 22.3074 18.1144 22.2909 17.9381 22.2043C17.7619 22.1177 17.6256 21.9676 17.5571 21.7846C17.4886 21.6016 17.493 21.3996 17.5694 21.2197L17.6157 21.1267L21.2897 14.8674C21.3407 14.7805 21.4085 14.7044 21.4892 14.6435C21.5699 14.5825 21.6619 14.538 21.7599 14.5124C21.8579 14.4868 21.9601 14.4806 22.0605 14.4942C22.161 14.5078 22.2577 14.5409 22.3453 14.5916H22.3463ZM23.6077 20.4964L24.0552 20.6875C24.2075 20.7436 24.2198 20.7426 24.3155 20.666C24.3945 20.603 24.4852 20.556 24.5824 20.5277C24.6797 20.4995 24.7816 20.4905 24.8823 20.5014C24.9831 20.5122 25.0807 20.5427 25.1696 20.591C25.2585 20.6393 25.3369 20.7046 25.4004 20.783C25.4639 20.8614 25.5112 20.9515 25.5397 21.048C25.5681 21.1446 25.5771 21.2458 25.5662 21.3458C25.5553 21.4459 25.5246 21.5428 25.4759 21.631C25.4273 21.7193 25.3616 21.7972 25.2826 21.8602C24.7239 22.3067 24.1447 22.3537 23.5202 22.1259L23.369 22.0656L23.1426 21.9665C22.7105 21.7724 22.6045 21.7622 22.371 21.9103C22.2854 21.9643 22.1899 22.001 22.09 22.0184C21.9902 22.0358 21.8878 22.0334 21.7888 22.0115C21.6898 21.9896 21.5962 21.9485 21.5132 21.8907C21.4302 21.8328 21.3595 21.7593 21.3051 21.6743C21.2507 21.5893 21.2137 21.4945 21.1962 21.3954C21.1788 21.2962 21.1811 21.1945 21.2032 21.0963C21.2253 20.998 21.2666 20.905 21.3249 20.8226C21.3831 20.7402 21.4572 20.6699 21.5428 20.6159C22.2702 20.1583 22.8371 20.1797 23.6077 20.4964ZM17.5859 15.1974C17.7814 15.1975 17.9695 15.2712 18.1124 15.4038C18.2553 15.5363 18.3421 15.7177 18.3554 15.9114C18.3688 16.1051 18.3076 16.2965 18.1842 16.4471C18.0608 16.5977 17.8845 16.6962 17.6908 16.7227L17.5859 16.7298H15.4376C15.2421 16.7298 15.0539 16.656 14.9111 16.5235C14.7682 16.3909 14.6814 16.2095 14.668 16.0158C14.6547 15.8222 14.7159 15.6307 14.8393 15.4801C14.9627 15.3295 15.139 15.231 15.3327 15.2046L15.4376 15.1974H17.5859Z" fill="#7BCB0C" stroke="#7BCB0C" style="fill:#7BCB0C;fill:color(display-p3 0.4824 0.7961 0.0471);fill-opacity:1;stroke:#7BCB0C;stroke:color(display-p3 0.4824 0.7961 0.0471);stroke-opacity:1;" stroke-width="2" mask="url(#path-1-inside-1_2227_3541)"/>
<path d="M0 4.28571V0H4.28571" stroke="#7BCB0C" style="stroke:#7BCB0C;stroke:color(display-p3 0.4824 0.7961 0.0471);stroke-opacity:1;"/>
<path d="M0 35.7143V40H4.28571" stroke="#7BCB0C" style="stroke:#7BCB0C;stroke:color(display-p3 0.4824 0.7961 0.0471);stroke-opacity:1;"/>
<path d="M40 4.28571V0H35.7143" stroke="#7BCB0C" style="stroke:#7BCB0C;stroke:color(display-p3 0.4824 0.7961 0.0471);stroke-opacity:1;"/>
<path d="M40 35.7143V40H35.7143" stroke="#7BCB0C" style="stroke:#7BCB0C;stroke:color(display-p3 0.4824 0.7961 0.0471);stroke-opacity:1;"/>
</g>
<defs>
<clipPath id="clip0_2227_3541">
<rect width="40" height="40" fill="white" style="fill:white;fill-opacity:1;"/>
</clipPath>
</defs>
</svg>
