<svg width="24" height="24" viewBox="0 0 24 24" fill="none" xmlns="http://www.w3.org/2000/svg">
<path d="M10 16.9498H6.21C2.84 16.9498 2 16.1098 2 12.7398V6.73979C2 3.36979 2.84 2.52979 6.21 2.52979H16.74C20.11 2.52979 20.95 3.36979 20.95 6.73979" stroke="white" style="stroke:white;stroke-opacity:1;" stroke-linecap="round" stroke-linejoin="round"/>
<path d="M10 21.4696V16.9497" stroke="white" style="stroke:white;stroke-opacity:1;" stroke-linecap="round" stroke-linejoin="round"/>
<path d="M2 12.9507H10" stroke="white" style="stroke:white;stroke-opacity:1;" stroke-linecap="round" stroke-linejoin="round"/>
<path d="M6.74023 21.4702H10.0002" stroke="white" style="stroke:white;stroke-opacity:1;" stroke-linecap="round" stroke-linejoin="round"/>
<path d="M21.9998 12.7994V18.5094C21.9998 20.8794 21.4098 21.4694 19.0398 21.4694H15.4898C13.1198 21.4694 12.5298 20.8794 12.5298 18.5094V12.7994C12.5298 10.4294 13.1198 9.83936 15.4898 9.83936H19.0398C21.4098 9.83936 21.9998 10.4294 21.9998 12.7994Z" stroke="white" style="stroke:white;stroke-opacity:1;" stroke-linecap="round" stroke-linejoin="round"/>
<path d="M13.875 15.375L15.1875 15.375L16.125 17.25L17.625 14.25L19.125 16.125L21 16.125" stroke="white" style="stroke:white;stroke-opacity:1;" stroke-linecap="round" stroke-linejoin="round"/>
</svg>
