<svg width="40" height="40" viewBox="0 0 40 40" fill="none" xmlns="http://www.w3.org/2000/svg">
<g clip-path="url(#clip0_2227_3514)">
<g clip-path="url(#clip1_2227_3514)">
<path d="M11.9053 23.3579C12.3852 23.358 12.7744 23.7471 12.7744 24.2271C12.7744 24.7069 12.3852 25.0961 11.9053 25.0962C11.4253 25.0962 11.0362 24.707 11.0361 24.2271C11.0361 23.7471 11.4253 23.3579 11.9053 23.3579Z" fill="#7BCB0C" stroke="#7BCB0C" style="fill:#7BCB0C;fill:color(display-p3 0.4824 0.7961 0.0471);fill-opacity:1;stroke:#7BCB0C;stroke:color(display-p3 0.4824 0.7961 0.0471);stroke-opacity:1;"/>
<path d="M24.3486 24.0503C23.9338 26.9762 21.4164 29.2025 18.4082 29.2026C16.6431 29.2026 14.9674 28.417 13.832 27.0815L14.1338 26.8667C15.199 28.1056 16.761 28.8335 18.4082 28.8335C21.2209 28.8334 23.5771 26.7608 23.9795 24.0288L24.3486 24.0503Z" fill="#7BCB0C" stroke="#7BCB0C" style="fill:#7BCB0C;fill:color(display-p3 0.4824 0.7961 0.0471);fill-opacity:1;stroke:#7BCB0C;stroke:color(display-p3 0.4824 0.7961 0.0471);stroke-opacity:1;"/>
<path d="M28.334 24.0415C28.8139 24.0416 29.2031 24.4307 29.2031 24.9106C29.2031 25.3905 28.8139 25.7797 28.334 25.7798C27.8541 25.7798 27.4649 25.3906 27.4648 24.9106C27.4648 24.4307 27.854 24.0415 28.334 24.0415Z" fill="#7BCB0C" stroke="#7BCB0C" style="fill:#7BCB0C;fill:color(display-p3 0.4824 0.7961 0.0471);fill-opacity:1;stroke:#7BCB0C;stroke:color(display-p3 0.4824 0.7961 0.0471);stroke-opacity:1;"/>
<path d="M23.8848 14.4595C27.1943 14.4595 29.8877 17.1528 29.8877 20.4624C29.8877 20.8507 29.8478 21.2358 29.7744 21.6138L29.418 21.5132C29.4831 21.1677 29.5186 20.8163 29.5186 20.4624C29.5185 17.3554 26.9917 14.8286 23.8848 14.8286C23.246 14.8286 22.6241 14.9346 22.0303 15.1421L21.8779 14.8052C22.5195 14.5769 23.1914 14.4595 23.8848 14.4595Z" fill="#7BCB0C" stroke="#7BCB0C" style="fill:#7BCB0C;fill:color(display-p3 0.4824 0.7961 0.0471);fill-opacity:1;stroke:#7BCB0C;stroke:color(display-p3 0.4824 0.7961 0.0471);stroke-opacity:1;"/>
<path d="M20.1191 17.1978C20.3522 17.1978 20.5691 17.2872 20.7334 17.4517V17.4526L22.7871 19.5063C22.9564 19.6756 23.042 19.8975 23.042 20.1206C23.0419 20.3438 22.9564 20.5657 22.7871 20.7349L20.7334 22.7886C20.569 22.9532 20.3522 23.0434 20.1191 23.0435C19.8861 23.0435 19.6695 22.9532 19.5049 22.7886H19.5039L17.4512 20.7349C17.2818 20.5656 17.1963 20.3438 17.1963 20.1206C17.1963 19.8973 17.2818 19.6756 17.4512 19.5063L19.5039 17.4526H19.5049C19.6696 17.2879 19.886 17.1978 20.1191 17.1978ZM17.3584 20.1206L20.1191 22.8813L22.8799 20.1206L20.1191 17.3599L17.3584 20.1206Z" fill="#7BCB0C" stroke="#7BCB0C" style="fill:#7BCB0C;fill:color(display-p3 0.4824 0.7961 0.0471);fill-opacity:1;stroke:#7BCB0C;stroke:color(display-p3 0.4824 0.7961 0.0471);stroke-opacity:1;"/>
<path d="M20.1191 10.3501C20.5991 10.3501 20.9883 10.7393 20.9883 11.2192C20.9882 11.6991 20.599 12.0883 20.1191 12.0884C19.6392 12.0884 19.2501 11.6992 19.25 11.2192C19.25 10.7393 19.6392 10.3501 20.1191 10.3501Z" fill="#7BCB0C" stroke="#7BCB0C" style="fill:#7BCB0C;fill:color(display-p3 0.4824 0.7961 0.0471);fill-opacity:1;stroke:#7BCB0C;stroke:color(display-p3 0.4824 0.7961 0.0471);stroke-opacity:1;"/>
<path d="M16.8936 11.4644C14.1618 11.8672 12.0898 14.2253 12.0898 17.0376C12.0899 18.9523 13.057 20.7144 14.6406 21.7505L14.4658 22.0776C12.7613 20.976 11.7208 19.0892 11.7207 17.0376C11.7207 14.0297 13.9465 11.5105 16.8721 11.0952L16.8936 11.4644Z" fill="#7BCB0C" stroke="#7BCB0C" style="fill:#7BCB0C;fill:color(display-p3 0.4824 0.7961 0.0471);fill-opacity:1;stroke:#7BCB0C;stroke:color(display-p3 0.4824 0.7961 0.0471);stroke-opacity:1;"/>
</g>
<path d="M0 4.28571V0H4.28571" stroke="#7BCB0C" style="stroke:#7BCB0C;stroke:color(display-p3 0.4824 0.7961 0.0471);stroke-opacity:1;"/>
<path d="M0 35.7143V40H4.28571" stroke="#7BCB0C" style="stroke:#7BCB0C;stroke:color(display-p3 0.4824 0.7961 0.0471);stroke-opacity:1;"/>
<path d="M40 4.28571V0H35.7143" stroke="#7BCB0C" style="stroke:#7BCB0C;stroke:color(display-p3 0.4824 0.7961 0.0471);stroke-opacity:1;"/>
<path d="M40 35.7143V40H35.7143" stroke="#7BCB0C" style="stroke:#7BCB0C;stroke:color(display-p3 0.4824 0.7961 0.0471);stroke-opacity:1;"/>
</g>
<defs>
<clipPath id="clip0_2227_3514">
<rect width="40" height="40" fill="white" style="fill:white;fill-opacity:1;"/>
</clipPath>
<clipPath id="clip1_2227_3514">
<rect width="21.9048" height="21.9048" fill="white" style="fill:white;fill-opacity:1;" transform="translate(9.16699 9.1665)"/>
</clipPath>
</defs>
</svg>
