<svg width="40" height="40" viewBox="0 0 40 40" fill="none" xmlns="http://www.w3.org/2000/svg">
<g clip-path="url(#clip0_2227_3505)">
<g clip-path="url(#clip1_2227_3505)">
<path d="M19.4346 18.5649C20.1037 18.565 20.6745 18.996 20.8906 19.6021L21.0098 19.9341H28.333C28.4029 19.9341 28.4667 19.9733 28.498 20.0356C28.5293 20.0982 28.5232 20.1734 28.4814 20.229H28.4805L23.1416 27.3481L22.542 28.1479H27.4414L27.5859 27.8999C27.7393 27.6363 28.017 27.4635 28.333 27.4634C28.8129 27.4634 29.202 27.8527 29.2021 28.3325C29.2021 28.8125 28.813 29.2017 28.333 29.2017C28.017 29.2016 27.7393 29.0297 27.5859 28.7661L27.4414 28.5171H22.1729C22.1029 28.5171 22.0392 28.4779 22.0078 28.4155C21.9766 28.3532 21.9829 28.2787 22.0244 28.2231L22.0254 28.2222L27.3643 21.103L27.9639 20.3032H21.0098L20.8906 20.6353C20.6745 21.2412 20.1036 21.6723 19.4346 21.6724C18.5784 21.6724 17.8809 20.9749 17.8809 20.1187C17.8809 19.2624 18.5783 18.5649 19.4346 18.5649ZM19.4346 18.9341C18.7812 18.9341 18.25 19.4646 18.25 20.1187C18.2501 20.7726 18.7813 21.3032 19.4346 21.3032C20.0878 21.3031 20.6191 20.7726 20.6191 20.1187C20.6191 19.4647 20.0879 18.9342 19.4346 18.9341Z" fill="#7BCB0C" stroke="#7BCB0C" style="fill:#7BCB0C;fill:color(display-p3 0.4824 0.7961 0.0471);fill-opacity:1;stroke:#7BCB0C;stroke:color(display-p3 0.4824 0.7961 0.0471);stroke-opacity:1;"/>
<path d="M11.9053 11.7212H26.9648C27.4448 11.7213 27.834 12.1104 27.834 12.5903V17.5669H27.4648V12.0903H19.6191V16.1978H19.25V12.3511L11.4814 20.1196L11.835 20.4731L18.3965 27.0356L19.25 27.8892V24.0425H19.6191V28.519H11.9053C11.4253 28.519 11.0362 28.1298 11.0361 27.6499V12.5903L11.041 12.5015C11.0825 12.0924 11.4073 11.7676 11.8164 11.7261L11.9053 11.7212ZM11.4053 28.1499H18.9893L11.4053 20.5659V28.1499ZM11.4053 19.6743L18.9893 12.0903H11.4053V19.6743Z" fill="#7BCB0C" stroke="#7BCB0C" style="fill:#7BCB0C;fill:color(display-p3 0.4824 0.7961 0.0471);fill-opacity:1;stroke:#7BCB0C;stroke:color(display-p3 0.4824 0.7961 0.0471);stroke-opacity:1;"/>
</g>
<path d="M0 4.28571V0H4.28571" stroke="#7BCB0C" style="stroke:#7BCB0C;stroke:color(display-p3 0.4824 0.7961 0.0471);stroke-opacity:1;"/>
<path d="M0 35.7143V40H4.28571" stroke="#7BCB0C" style="stroke:#7BCB0C;stroke:color(display-p3 0.4824 0.7961 0.0471);stroke-opacity:1;"/>
<path d="M40 4.28571V0H35.7143" stroke="#7BCB0C" style="stroke:#7BCB0C;stroke:color(display-p3 0.4824 0.7961 0.0471);stroke-opacity:1;"/>
<path d="M40 35.7143V40H35.7143" stroke="#7BCB0C" style="stroke:#7BCB0C;stroke:color(display-p3 0.4824 0.7961 0.0471);stroke-opacity:1;"/>
</g>
<defs>
<clipPath id="clip0_2227_3505">
<rect width="40" height="40" fill="white" style="fill:white;fill-opacity:1;"/>
</clipPath>
<clipPath id="clip1_2227_3505">
<rect width="21.9048" height="21.9048" fill="white" style="fill:white;fill-opacity:1;" transform="translate(9.16699 9.1665)"/>
</clipPath>
</defs>
</svg>
