<svg width="64" height="64" viewBox="0 0 64 64" fill="none" xmlns="http://www.w3.org/2000/svg">
<path d="M46.8541 7.5H17.1459C12.0947 7.5 8 11.5947 8 16.6459V46.3541C8 51.4053 12.0947 55.5 17.1459 55.5H46.8541C51.9053 55.5 56 51.4053 56 46.3541V16.6459C56 11.5947 51.9053 7.5 46.8541 7.5Z" fill="#7BCB0C" style="fill:#7BCB0C;fill:color(display-p3 0.4824 0.7961 0.0471);fill-opacity:1;"/>
<path d="M46.8594 39.835C45.4406 39.835 44.2127 37.764 43.1396 35.1118C42.6691 33.9494 42.2286 32.6759 41.8146 31.4156C41.6014 30.7666 41.3951 30.1212 41.1956 29.4962C40.2573 26.5594 39.2872 23.5227 38.0478 21.1943C37.3154 19.8193 36.5439 18.7863 35.6889 18.037C34.5844 17.0687 33.3433 16.5781 32.0001 16.5781C30.6569 16.5781 29.4157 17.0691 28.3112 18.037C27.4558 18.7867 26.6843 19.8193 25.9523 21.1943C24.7125 23.5223 23.7428 26.5594 22.8045 29.4962C22.605 30.1212 22.3987 30.7666 22.1855 31.4161C23.3506 32.2386 24.2903 33.2885 25.1133 34.3352C25.5383 33.1209 25.9405 31.8642 26.3363 30.6249C27.8079 26.0187 29.6394 20.2861 32.0001 20.2861C34.3612 20.2861 36.1922 26.0187 37.6639 30.6249C38.0597 31.8642 38.4619 33.1209 38.8868 34.3347C39.3865 35.7613 39.9189 37.1277 40.5124 38.337C40.6108 38.5374 40.7101 38.7351 40.8121 38.9264C41.5445 40.3014 42.3161 41.3344 43.171 42.0837C44.2755 43.052 45.5167 43.5426 46.8599 43.5426H48.5847V39.835H46.8594Z" fill="#E0E0E0" style="fill:#E0E0E0;fill:color(display-p3 0.8784 0.8784 0.8784);fill-opacity:1;"/>
<path d="M20.8598 35.1094C19.7867 37.7616 18.5587 39.8322 17.1399 39.8322H15.415V43.5397H17.1399C18.4831 43.5397 19.7243 43.0487 20.8288 42.0808C21.6837 41.3311 22.4557 40.2986 23.1877 38.9235C23.2893 38.7322 23.3885 38.535 23.4869 38.3346C23.3489 38.151 23.2141 37.9693 23.0811 37.7907C22.2808 36.7126 21.5844 35.8053 20.8598 35.1094Z" fill="#E0E0E0" style="fill:#E0E0E0;fill:color(display-p3 0.8784 0.8784 0.8784);fill-opacity:1;"/>
<path d="M46.8598 29.8364C44.7737 29.8364 43.1468 30.4791 41.8154 31.4187C42.2295 32.679 42.6704 33.953 43.1404 35.1149C44.188 34.1087 45.2948 33.5435 46.8602 33.5435H48.5851V29.8359H46.8598V29.8364Z" fill="white" style="fill:white;fill-opacity:1;"/>
<path d="M37.9414 35.5854C35.9828 38.2221 34.6478 39.8381 31.9997 39.8381C29.3516 39.8381 28.0166 38.2221 26.0581 35.5854C25.757 35.18 25.4446 34.7596 25.113 34.3378C24.2899 33.2912 23.3503 32.2413 22.1852 31.4187C20.8534 30.4786 19.2264 29.8359 17.1399 29.8359H15.415V33.5435H17.1399C18.7054 33.5435 19.8122 34.1087 20.8598 35.1153C21.5844 35.8113 22.2808 36.7186 23.0816 37.7962C23.2141 37.9748 23.3494 38.157 23.4874 38.3401C25.3261 40.7869 27.6768 43.5457 31.9997 43.5457C36.3231 43.5457 38.6738 40.7869 40.5125 38.3396C39.919 37.1303 39.3866 35.7639 38.8869 34.3374C38.5553 34.7591 38.2424 35.18 37.9414 35.5854Z" fill="white" style="fill:white;fill-opacity:1;"/>
</svg>
