<svg width="40" height="40" viewBox="0 0 40 40" fill="none" xmlns="http://www.w3.org/2000/svg">
<path d="M15.0007 36.6615H25.0007C33.334 36.6615 36.6673 33.3281 36.6673 24.9948V14.9948C36.6673 6.66146 33.334 3.32812 25.0007 3.32812H15.0007C6.66732 3.32812 3.33398 6.66146 3.33398 14.9948V24.9948C3.33398 33.3281 6.66732 36.6615 15.0007 36.6615Z" stroke="#333333" style="stroke:#333333;stroke:color(display-p3 0.2000 0.2000 0.2000);stroke-opacity:1;" stroke-width="1.5" stroke-linecap="round" stroke-linejoin="round"/>
<path d="M25.833 16.25C27.2137 16.25 28.333 15.1307 28.333 13.75C28.333 12.3693 27.2137 11.25 25.833 11.25C24.4523 11.25 23.333 12.3693 23.333 13.75C23.333 15.1307 24.4523 16.25 25.833 16.25Z" stroke="#7BCB0C" style="stroke:#7BCB0C;stroke:color(display-p3 0.4824 0.7961 0.0471);stroke-opacity:1;" stroke-width="1.5" stroke-miterlimit="10" stroke-linecap="round" stroke-linejoin="round"/>
<path d="M14.167 16.25C15.5477 16.25 16.667 15.1307 16.667 13.75C16.667 12.3693 15.5477 11.25 14.167 11.25C12.7863 11.25 11.667 12.3693 11.667 13.75C11.667 15.1307 12.7863 16.25 14.167 16.25Z" stroke="#7BCB0C" style="stroke:#7BCB0C;stroke:color(display-p3 0.4824 0.7961 0.0471);stroke-opacity:1;" stroke-width="1.5" stroke-miterlimit="10" stroke-linecap="round" stroke-linejoin="round"/>
<path d="M14 22.1641H26C26.8333 22.1641 27.5 22.8307 27.5 23.6641C27.5 27.8141 24.15 31.1641 20 31.1641C15.85 31.1641 12.5 27.8141 12.5 23.6641C12.5 22.8307 13.1667 22.1641 14 22.1641Z" stroke="#7BCB0C" style="stroke:#7BCB0C;stroke:color(display-p3 0.4824 0.7961 0.0471);stroke-opacity:1;" stroke-width="1.5" stroke-miterlimit="10" stroke-linecap="round" stroke-linejoin="round"/>
</svg>
