<svg width="64" height="64" viewBox="0 0 64 64" fill="none" xmlns="http://www.w3.org/2000/svg">
<path d="M9.72007 14.0734C9.67872 13.4945 10.1372 13.0021 10.7175 13.0021L51.2822 13.0001C51.8625 13 52.321 13.4924 52.2797 14.0713L51.494 25.0729C51.4566 25.5962 51.0212 26.0017 50.4965 26.0017H11.5032C10.9786 26.0017 10.5431 25.5962 10.5058 25.0729L9.72007 14.0734Z" fill="#7BCB0C" style="fill:#7BCB0C;fill:color(display-p3 0.4824 0.7961 0.0471);fill-opacity:1;"/>
<path d="M19.9519 19.6578C19.9011 19.0736 20.3617 18.5712 20.9481 18.5712L41.0515 18.5704C41.638 18.5703 42.0986 19.0727 42.0478 19.657L41.7373 23.2282C41.6923 23.7449 41.2597 24.1415 40.741 24.1415H21.2587C20.74 24.1415 20.3074 23.7449 20.2624 23.2282L19.9519 19.6578Z" fill="#75BB13" style="fill:#75BB13;fill:color(display-p3 0.4571 0.7337 0.0734);fill-opacity:1;"/>
<path d="M23.7554 30.9328C23.7907 30.4078 24.2269 30 24.7531 30H37.4893C37.99 30 38.4135 30.3703 38.4803 30.8665L41.8473 55.8665C41.9281 56.4664 41.4616 57 40.8563 57H23.0696C22.4909 57 22.033 56.5102 22.0719 55.9328L23.7554 30.9328Z" fill="#E0E0E0" style="fill:#E0E0E0;fill:color(display-p3 0.8784 0.8784 0.8784);fill-opacity:1;"/>
<path d="M27.7302 40.6788L28.3867 31.3555" stroke="white" style="stroke:white;stroke-opacity:1;" stroke-linecap="round" stroke-linejoin="round"/>
<path d="M36.6431 40.7583L35.3379 31.2832" stroke="white" style="stroke:white;stroke-opacity:1;" stroke-linecap="round" stroke-linejoin="round"/>
</svg>
