<svg width="40" height="40" viewBox="0 0 40 40" fill="none" xmlns="http://www.w3.org/2000/svg">
<path d="M36.6667 27.4948V32.4948C36.6667 34.9948 35 36.6615 32.5 36.6615H10C10.6833 36.6615 11.3833 36.5615 12.0333 36.3448C12.2167 36.2781 12.4 36.2115 12.5833 36.1281C13.1667 35.8948 13.7334 35.5615 14.2334 35.1281C14.3834 35.0115 14.55 34.8615 14.7 34.7115L14.7667 34.6448L26.1 23.3281H32.5C35 23.3281 36.6667 24.9948 36.6667 27.4948Z" stroke="#7BCB0C" style="stroke:#7BCB0C;stroke:color(display-p3 0.4824 0.7961 0.0471);stroke-opacity:1;" stroke-width="1.5" stroke-linecap="round" stroke-linejoin="round"/>
<path d="M16.6673 7.49479V29.9948C16.6673 31.7948 15.934 33.4448 14.7673 34.6448L14.7007 34.7115C14.5507 34.8615 14.384 35.0115 14.234 35.1281C13.734 35.5615 13.1673 35.8948 12.584 36.1281C12.4006 36.2115 12.2173 36.2781 12.034 36.3448C11.384 36.5615 10.684 36.6615 10.0007 36.6615C9.55065 36.6615 9.10067 36.6115 8.66733 36.5281C8.45067 36.4781 8.23398 36.4281 8.01732 36.3615C7.75065 36.2781 7.50067 36.1948 7.25067 36.0781C7.25067 36.0615 7.25065 36.0615 7.23398 36.0781C6.76732 35.8448 6.31733 35.5781 5.90067 35.2615L5.88398 35.2448C5.66732 35.0781 5.46733 34.9115 5.284 34.7115C5.10067 34.5115 4.91732 34.3115 4.73398 34.0948C4.41732 33.6781 4.15067 33.2281 3.91733 32.7615C3.934 32.7448 3.934 32.7448 3.91733 32.7448C3.91733 32.7448 3.91732 32.7281 3.90065 32.7115C3.80065 32.4781 3.7173 32.2281 3.63397 31.9781C3.5673 31.7615 3.5173 31.5448 3.4673 31.3281C3.38397 30.8948 3.33398 30.4448 3.33398 29.9948V7.49479C3.33398 4.99479 5.00065 3.32812 7.50065 3.32812H12.5007C15.0007 3.32812 16.6673 4.99479 16.6673 7.49479Z" stroke="#333333" style="stroke:#333333;stroke:color(display-p3 0.2000 0.2000 0.2000);stroke-opacity:1;" stroke-width="1.5" stroke-linecap="round" stroke-linejoin="round"/>
<path d="M8.01615 36.3677C7.01615 36.0677 6.06618 35.5177 5.28285 34.7177C4.48285 33.9344 3.93281 32.9844 3.63281 31.9844C4.28281 34.0677 5.93281 35.7177 8.01615 36.3677Z" stroke="#333333" style="stroke:#333333;stroke:color(display-p3 0.2000 0.2000 0.2000);stroke-opacity:1;" stroke-width="1.5" stroke-linecap="round" stroke-linejoin="round"/>
<path d="M30.6157 18.8207L26.099 23.3376L14.7656 34.6541C15.9323 33.4541 16.6656 31.8042 16.6656 30.0042V13.9041L21.1823 9.3875C22.949 7.62083 25.3157 7.62083 27.0823 9.3875L30.6157 12.9208C32.3823 14.6875 32.3823 17.0541 30.6157 18.8207Z" stroke="#333333" style="stroke:#333333;stroke:color(display-p3 0.2000 0.2000 0.2000);stroke-opacity:1;" stroke-width="1.5" stroke-linecap="round" stroke-linejoin="round"/>
<path d="M10.0007 31.6615C10.9211 31.6615 11.6673 30.9153 11.6673 29.9948C11.6673 29.0743 10.9211 28.3281 10.0007 28.3281C9.08018 28.3281 8.33398 29.0743 8.33398 29.9948C8.33398 30.9153 9.08018 31.6615 10.0007 31.6615Z" stroke="#7BCB0C" style="stroke:#7BCB0C;stroke:color(display-p3 0.4824 0.7961 0.0471);stroke-opacity:1;" stroke-width="1.5" stroke-linecap="round" stroke-linejoin="round"/>
</svg>
