<svg width="60" height="60" viewBox="0 0 60 60" fill="none" xmlns="http://www.w3.org/2000/svg">
<path d="M55.7016 33.203L48.2016 40.703C47.8497 41.0549 47.3726 41.2525 46.875 41.2525C46.3774 41.2525 45.9003 41.0549 45.5484 40.703C45.1966 40.3512 44.999 39.874 44.999 39.3765C44.999 38.8789 45.1966 38.4017 45.5484 38.0499L49.8492 33.7515H28.9008L15.7758 46.8765H22.5C22.9973 46.8765 23.4742 47.074 23.8258 47.4256C24.1775 47.7773 24.375 48.2542 24.375 48.7515C24.375 49.2488 24.1775 49.7257 23.8258 50.0773C23.4742 50.4289 22.9973 50.6265 22.5 50.6265H11.25C10.7527 50.6265 10.2758 50.4289 9.92418 50.0773C9.57254 49.7257 9.375 49.2488 9.375 48.7515V37.5015C9.375 37.0042 9.57254 36.5273 9.92418 36.1756C10.2758 35.824 10.7527 35.6265 11.25 35.6265C11.7473 35.6265 12.2242 35.824 12.5758 36.1756C12.9275 36.5273 13.125 37.0042 13.125 37.5015V44.2257L26.25 31.1007V10.1523L21.9516 14.453C21.5997 14.8049 21.1226 15.0025 20.625 15.0025C20.1274 15.0025 19.6503 14.8049 19.2984 14.453C18.9466 14.1012 18.749 13.624 18.749 13.1265C18.749 12.6289 18.9466 12.1517 19.2984 11.7999L26.7984 4.29991C26.9726 4.12558 27.1794 3.98728 27.407 3.89293C27.6346 3.79857 27.8786 3.75 28.125 3.75C28.3714 3.75 28.6154 3.79857 28.843 3.89293C29.0706 3.98728 29.2774 4.12558 29.4516 4.29991L36.9516 11.7999C37.3034 12.1517 37.501 12.6289 37.501 13.1265C37.501 13.624 37.3034 14.1012 36.9516 14.453C36.5997 14.8049 36.1226 15.0025 35.625 15.0025C35.1274 15.0025 34.6503 14.8049 34.2984 14.453L30 10.1523V30.0015H49.8492L45.5484 25.703C45.1966 25.3512 44.999 24.874 44.999 24.3765C44.999 23.8789 45.1966 23.4017 45.5484 23.0499C45.9003 22.6981 46.3774 22.5004 46.875 22.5004C47.3726 22.5004 47.8497 22.6981 48.2016 23.0499L55.7016 30.5499C55.8759 30.724 56.0142 30.9308 56.1086 31.1585C56.2029 31.3861 56.2515 31.6301 56.2515 31.8765C56.2515 32.1229 56.2029 32.3669 56.1086 32.5945C56.0142 32.8221 55.8759 33.0289 55.7016 33.203Z" fill="#333333" style="fill:#333333;fill:color(display-p3 0.2000 0.2000 0.2000);fill-opacity:1;"/>
</svg>
