<svg width="60" height="60" viewBox="0 0 60 60" fill="none" xmlns="http://www.w3.org/2000/svg">
<path d="M20.447 12.3274C20.2956 12.0052 20.0557 11.7329 19.7552 11.5421C19.4547 11.3513 19.1061 11.25 18.7502 11.25C18.3942 11.25 18.0457 11.3513 17.7452 11.5421C17.4447 11.7329 17.2047 12.0052 17.0533 12.3274L2.0533 44.2024C1.94849 44.4252 1.88861 44.6665 1.87706 44.9125C1.86552 45.1584 1.90253 45.4043 1.98599 45.636C2.15456 46.1039 2.50208 46.4856 2.95212 46.6973C3.40216 46.9089 3.91785 46.9331 4.38574 46.7646C4.85363 46.596 5.23539 46.2485 5.44705 45.7984L9.35173 37.5016H28.1486L32.0533 45.7984C32.1581 46.0213 32.3058 46.2213 32.4879 46.3871C32.67 46.5528 32.8829 46.6811 33.1146 46.7646C33.3463 46.848 33.5921 46.8851 33.8381 46.8735C34.0841 46.862 34.3254 46.8021 34.5482 46.6973C34.7711 46.5925 34.9711 46.4448 35.1368 46.2627C35.3026 46.0806 35.4309 45.8676 35.5143 45.636C35.5978 45.4043 35.6348 45.1584 35.6233 44.9125C35.6117 44.6665 35.5518 44.4252 35.447 44.2024L20.447 12.3274ZM11.1166 33.7516L18.7502 17.5305L26.3838 33.7516H11.1166ZM46.8752 22.5016C43.8845 22.5016 41.5478 23.3149 39.9306 24.9203C39.5921 25.2733 39.4048 25.7446 39.4088 26.2336C39.4128 26.7227 39.6078 27.1909 39.9521 27.5382C40.2964 27.8856 40.7628 28.0847 41.2518 28.093C41.7408 28.1013 42.2138 27.9183 42.5697 27.5828C43.4603 26.6992 44.9135 26.2516 46.8752 26.2516C49.976 26.2516 52.5002 28.3609 52.5002 30.9391V31.6938C50.8363 30.5805 48.8771 29.9912 46.8752 30.0016C41.7049 30.0016 37.5002 33.7867 37.5002 38.4391C37.5002 43.0914 41.7049 46.8766 46.8752 46.8766C48.8779 46.8853 50.8373 46.2935 52.5002 45.1774C52.5235 45.6746 52.7434 46.1423 53.1115 46.4774C53.4796 46.8126 53.9658 46.9878 54.4631 46.9645C54.9603 46.9412 55.428 46.7213 55.7631 46.3531C56.0983 45.985 56.2735 45.4989 56.2502 45.0016V30.9391C56.2502 26.2867 52.0455 22.5016 46.8752 22.5016ZM46.8752 43.1266C43.7744 43.1266 41.2502 41.0172 41.2502 38.4391C41.2502 35.8609 43.7744 33.7516 46.8752 33.7516C49.976 33.7516 52.5002 35.8609 52.5002 38.4391C52.5002 41.0172 49.976 43.1266 46.8752 43.1266Z" fill="#333333" style="fill:#333333;fill:color(display-p3 0.2000 0.2000 0.2000);fill-opacity:1;"/>
</svg>
