<svg width="60" height="60" viewBox="0 0 60 60" fill="none" xmlns="http://www.w3.org/2000/svg">
<path d="M54.375 11.25V20.625C54.375 21.1223 54.1775 21.5992 53.8258 21.9508C53.4742 22.3025 52.9973 22.5 52.5 22.5C52.0027 22.5 51.5258 22.3025 51.1742 21.9508C50.8225 21.5992 50.625 21.1223 50.625 20.625V13.125H43.125C42.6277 13.125 42.1508 12.9275 41.7992 12.5758C41.4475 12.2242 41.25 11.7473 41.25 11.25C41.25 10.7527 41.4475 10.2758 41.7992 9.92418C42.1508 9.57254 42.6277 9.375 43.125 9.375H52.5C52.9973 9.375 53.4742 9.57254 53.8258 9.92418C54.1775 10.2758 54.375 10.7527 54.375 11.25ZM16.875 46.875H9.375V39.375C9.375 38.8777 9.17746 38.4008 8.82582 38.0492C8.47419 37.6975 7.99728 37.5 7.5 37.5C7.00272 37.5 6.52581 37.6975 6.17417 38.0492C5.82254 38.4008 5.625 38.8777 5.625 39.375V48.75C5.625 49.2473 5.82254 49.7242 6.17417 50.0758C6.52581 50.4275 7.00272 50.625 7.5 50.625H16.875C17.3723 50.625 17.8492 50.4275 18.2008 50.0758C18.5525 49.7242 18.75 49.2473 18.75 48.75C18.75 48.2527 18.5525 47.7758 18.2008 47.4242C17.8492 47.0725 17.3723 46.875 16.875 46.875ZM52.5 37.5C52.0027 37.5 51.5258 37.6975 51.1742 38.0492C50.8225 38.4008 50.625 38.8777 50.625 39.375V46.875H43.125C42.6277 46.875 42.1508 47.0725 41.7992 47.4242C41.4475 47.7758 41.25 48.2527 41.25 48.75C41.25 49.2473 41.4475 49.7242 41.7992 50.0758C42.1508 50.4275 42.6277 50.625 43.125 50.625H52.5C52.9973 50.625 53.4742 50.4275 53.8258 50.0758C54.1775 49.7242 54.375 49.2473 54.375 48.75V39.375C54.375 38.8777 54.1775 38.4008 53.8258 38.0492C53.4742 37.6975 52.9973 37.5 52.5 37.5ZM7.5 22.5C7.99728 22.5 8.47419 22.3025 8.82582 21.9508C9.17746 21.5992 9.375 21.1223 9.375 20.625V13.125H16.875C17.3723 13.125 17.8492 12.9275 18.2008 12.5758C18.5525 12.2242 18.75 11.7473 18.75 11.25C18.75 10.7527 18.5525 10.2758 18.2008 9.92418C17.8492 9.57254 17.3723 9.375 16.875 9.375H7.5C7.00272 9.375 6.52581 9.57254 6.17417 9.92418C5.82254 10.2758 5.625 10.7527 5.625 11.25V20.625C5.625 21.1223 5.82254 21.5992 6.17417 21.9508C6.52581 22.3025 7.00272 22.5 7.5 22.5ZM44.0625 39.1406L30.9375 46.6406C30.6541 46.8026 30.3334 46.8878 30.007 46.8878C29.6806 46.8878 29.3599 46.8026 29.0766 46.6406L15.9375 39.1406C15.65 38.9746 15.4117 38.7353 15.247 38.447C15.0823 38.1588 14.997 37.832 15 37.5V22.5C14.997 22.168 15.0823 21.8412 15.247 21.553C15.4117 21.2647 15.65 21.0254 15.9375 20.8594L29.0625 13.3594C29.3459 13.1974 29.6666 13.1122 29.993 13.1122C30.3194 13.1122 30.6401 13.1974 30.9234 13.3594L44.0484 20.8594C44.336 21.0254 44.5743 21.2647 44.739 21.553C44.9037 21.8412 44.9889 22.168 44.9859 22.5V37.5C44.9903 37.8306 44.9072 38.1565 44.7451 38.4446C44.5829 38.7327 44.3474 38.9729 44.0625 39.1406ZM20.6531 22.5L30 27.8414L39.3469 22.5L30 17.1586L20.6531 22.5ZM18.75 36.4125L28.125 41.768V31.0875L18.75 25.732V36.4125ZM41.25 36.4125V25.732L31.875 31.0875V41.768L41.25 36.4125Z" fill="#333333" style="fill:#333333;fill:color(display-p3 0.2000 0.2000 0.2000);fill-opacity:1;"/>
</svg>
