<svg width="60" height="60" viewBox="0 0 60 60" fill="none" xmlns="http://www.w3.org/2000/svg">
<path d="M20.625 22.5C20.625 22.0027 20.8225 21.5258 21.1742 21.1742C21.5258 20.8225 22.0027 20.625 22.5 20.625H37.5C37.9973 20.625 38.4742 20.8225 38.8258 21.1742C39.1775 21.5258 39.375 22.0027 39.375 22.5C39.375 22.9973 39.1775 23.4742 38.8258 23.8258C38.4742 24.1775 37.9973 24.375 37.5 24.375H22.5C22.0027 24.375 21.5258 24.1775 21.1742 23.8258C20.8225 23.4742 20.625 22.9973 20.625 22.5ZM22.5 31.875H37.5C37.9973 31.875 38.4742 31.6775 38.8258 31.3258C39.1775 30.9742 39.375 30.4973 39.375 30C39.375 29.5027 39.1775 29.0258 38.8258 28.6742C38.4742 28.3225 37.9973 28.125 37.5 28.125H22.5C22.0027 28.125 21.5258 28.3225 21.1742 28.6742C20.8225 29.0258 20.625 29.5027 20.625 30C20.625 30.4973 20.8225 30.9742 21.1742 31.3258C21.5258 31.6775 22.0027 31.875 22.5 31.875ZM30 35.625H22.5C22.0027 35.625 21.5258 35.8225 21.1742 36.1742C20.8225 36.5258 20.625 37.0027 20.625 37.5C20.625 37.9973 20.8225 38.4742 21.1742 38.8258C21.5258 39.1775 22.0027 39.375 22.5 39.375H30C30.4973 39.375 30.9742 39.1775 31.3258 38.8258C31.6775 38.4742 31.875 37.9973 31.875 37.5C31.875 37.0027 31.6775 36.5258 31.3258 36.1742C30.9742 35.8225 30.4973 35.625 30 35.625ZM52.5 11.25V36.7242C52.5016 37.2169 52.4052 37.7049 52.2165 38.16C52.0278 38.615 51.7505 39.028 51.4008 39.375L39.375 51.4008C39.028 51.7505 38.615 52.0278 38.16 52.2165C37.7049 52.4052 37.2169 52.5016 36.7242 52.5H11.25C10.2554 52.5 9.30161 52.1049 8.59835 51.4016C7.89509 50.6984 7.5 49.7446 7.5 48.75V11.25C7.5 10.2554 7.89509 9.30161 8.59835 8.59835C9.30161 7.89509 10.2554 7.5 11.25 7.5H48.75C49.7446 7.5 50.6984 7.89509 51.4016 8.59835C52.1049 9.30161 52.5 10.2554 52.5 11.25ZM11.25 48.75H35.625V37.5C35.625 37.0027 35.8225 36.5258 36.1742 36.1742C36.5258 35.8225 37.0027 35.625 37.5 35.625H48.75V11.25H11.25V48.75ZM39.375 39.375V46.1016L46.0992 39.375H39.375Z" fill="#333333" style="fill:#333333;fill:color(display-p3 0.2000 0.2000 0.2000);fill-opacity:1;"/>
</svg>
