<svg width="60" height="60" viewBox="0 0 60 60" fill="none" xmlns="http://www.w3.org/2000/svg">
<path d="M52.425 15.5072L31.8 4.22203C31.2489 3.91753 30.6296 3.75781 30 3.75781C29.3704 3.75781 28.7511 3.91753 28.2 4.22203L7.575 15.5119C6.98599 15.8341 6.4943 16.3087 6.15129 16.8858C5.80828 17.463 5.62652 18.1217 5.625 18.7931V41.2087C5.62652 41.8802 5.80828 42.5388 6.15129 43.116C6.4943 43.6932 6.98599 44.1677 7.575 44.49L28.2 55.7798C28.7511 56.0843 29.3704 56.2441 30 56.2441C30.6296 56.2441 31.2489 56.0843 31.8 55.7798L52.425 44.49C53.014 44.1677 53.5057 43.6932 53.8487 43.116C54.1917 42.5388 54.3735 41.8802 54.375 41.2087V18.7955C54.3747 18.1229 54.1936 17.4627 53.8505 16.8842C53.5074 16.3056 53.0151 15.83 52.425 15.5072ZM30 7.50328L48.8297 17.8158L30 28.1283L11.1703 17.8158L30 7.50328ZM9.375 21.097L28.125 31.358V51.465L9.375 41.2111V21.097ZM31.875 51.465V31.3673L50.625 21.097V41.2017L31.875 51.465Z" fill="#333333" style="fill:#333333;fill:color(display-p3 0.2000 0.2000 0.2000);fill-opacity:1;"/>
</svg>
