<svg width="60" height="60" viewBox="0 0 60 60" fill="none" xmlns="http://www.w3.org/2000/svg">
<path d="M16.875 14.0625C16.875 14.6188 16.7101 15.1625 16.401 15.625C16.092 16.0876 15.6527 16.448 15.1388 16.6609C14.6249 16.8738 14.0594 16.9295 13.5138 16.821C12.9682 16.7124 12.4671 16.4446 12.0738 16.0512C11.6804 15.6579 11.4126 15.1568 11.304 14.6112C11.1955 14.0656 11.2512 13.5001 11.4641 12.9862C11.677 12.4723 12.0374 12.033 12.5 11.724C12.9625 11.415 13.5062 11.25 14.0625 11.25C14.8084 11.25 15.5238 11.5463 16.0512 12.0738C16.5787 12.6012 16.875 13.3166 16.875 14.0625ZM30 11.25C29.4437 11.25 28.9 11.415 28.4375 11.724C27.9749 12.033 27.6145 12.4723 27.4016 12.9862C27.1887 13.5001 27.133 14.0656 27.2415 14.6112C27.3501 15.1568 27.6179 15.6579 28.0113 16.0512C28.4046 16.4446 28.9057 16.7124 29.4513 16.821C29.9969 16.9295 30.5624 16.8738 31.0763 16.6609C31.5902 16.448 32.0295 16.0876 32.3385 15.625C32.6476 15.1625 32.8125 14.6188 32.8125 14.0625C32.8125 13.3166 32.5162 12.6012 31.9887 12.0738C31.4613 11.5463 30.7459 11.25 30 11.25ZM45.9375 16.875C46.4938 16.875 47.0375 16.7101 47.5 16.401C47.9626 16.092 48.323 15.6527 48.5359 15.1388C48.7488 14.6249 48.8045 14.0594 48.696 13.5138C48.5874 12.9682 48.3196 12.4671 47.9262 12.0738C47.5329 11.6804 47.0318 11.4126 46.4862 11.304C45.9406 11.1955 45.3751 11.2512 44.8612 11.4641C44.3473 11.677 43.908 12.0374 43.599 12.5C43.29 12.9625 43.125 13.5062 43.125 14.0625C43.125 14.8084 43.4213 15.5238 43.9488 16.0512C44.4762 16.5787 45.1916 16.875 45.9375 16.875ZM14.0625 27.1875C13.5062 27.1875 12.9625 27.3525 12.5 27.6615C12.0374 27.9705 11.677 28.4098 11.4641 28.9237C11.2512 29.4376 11.1955 30.0031 11.304 30.5487C11.4126 31.0943 11.6804 31.5954 12.0738 31.9887C12.4671 32.3821 12.9682 32.6499 13.5138 32.7585C14.0594 32.867 14.6249 32.8113 15.1388 32.5984C15.6527 32.3855 16.092 32.0251 16.401 31.5625C16.7101 31.1 16.875 30.5563 16.875 30C16.875 29.2541 16.5787 28.5387 16.0512 28.0113C15.5238 27.4838 14.8084 27.1875 14.0625 27.1875ZM30 27.1875C29.4437 27.1875 28.9 27.3525 28.4375 27.6615C27.9749 27.9705 27.6145 28.4098 27.4016 28.9237C27.1887 29.4376 27.133 30.0031 27.2415 30.5487C27.3501 31.0943 27.6179 31.5954 28.0113 31.9887C28.4046 32.3821 28.9057 32.6499 29.4513 32.7585C29.9969 32.867 30.5624 32.8113 31.0763 32.5984C31.5902 32.3855 32.0295 32.0251 32.3385 31.5625C32.6476 31.1 32.8125 30.5563 32.8125 30C32.8125 29.2541 32.5162 28.5387 31.9887 28.0113C31.4613 27.4838 30.7459 27.1875 30 27.1875ZM45.9375 27.1875C45.3812 27.1875 44.8375 27.3525 44.375 27.6615C43.9124 27.9705 43.552 28.4098 43.3391 28.9237C43.1262 29.4376 43.0705 30.0031 43.179 30.5487C43.2876 31.0943 43.5554 31.5954 43.9488 31.9887C44.3421 32.3821 44.8432 32.6499 45.3888 32.7585C45.9344 32.867 46.4999 32.8113 47.0138 32.5984C47.5277 32.3855 47.967 32.0251 48.276 31.5625C48.585 31.1 48.75 30.5563 48.75 30C48.75 29.2541 48.4537 28.5387 47.9262 28.0113C47.3988 27.4838 46.6834 27.1875 45.9375 27.1875ZM14.0625 43.125C13.5062 43.125 12.9625 43.29 12.5 43.599C12.0374 43.908 11.677 44.3473 11.4641 44.8612C11.2512 45.3751 11.1955 45.9406 11.304 46.4862C11.4126 47.0318 11.6804 47.5329 12.0738 47.9262C12.4671 48.3196 12.9682 48.5874 13.5138 48.696C14.0594 48.8045 14.6249 48.7488 15.1388 48.5359C15.6527 48.323 16.092 47.9626 16.401 47.5C16.7101 47.0375 16.875 46.4938 16.875 45.9375C16.875 45.1916 16.5787 44.4762 16.0512 43.9488C15.5238 43.4213 14.8084 43.125 14.0625 43.125ZM30 43.125C29.4437 43.125 28.9 43.29 28.4375 43.599C27.9749 43.908 27.6145 44.3473 27.4016 44.8612C27.1887 45.3751 27.133 45.9406 27.2415 46.4862C27.3501 47.0318 27.6179 47.5329 28.0113 47.9262C28.4046 48.3196 28.9057 48.5874 29.4513 48.696C29.9969 48.8045 30.5624 48.7488 31.0763 48.5359C31.5902 48.323 32.0295 47.9626 32.3385 47.5C32.6476 47.0375 32.8125 46.4938 32.8125 45.9375C32.8125 45.1916 32.5162 44.4762 31.9887 43.9488C31.4613 43.4213 30.7459 43.125 30 43.125ZM45.9375 43.125C45.3812 43.125 44.8375 43.29 44.375 43.599C43.9124 43.908 43.552 44.3473 43.3391 44.8612C43.1262 45.3751 43.0705 45.9406 43.179 46.4862C43.2876 47.0318 43.5554 47.5329 43.9488 47.9262C44.3421 48.3196 44.8432 48.5874 45.3888 48.696C45.9344 48.8045 46.4999 48.7488 47.0138 48.5359C47.5277 48.323 47.967 47.9626 48.276 47.5C48.585 47.0375 48.75 46.4938 48.75 45.9375C48.75 45.1916 48.4537 44.4762 47.9262 43.9488C47.3988 43.4213 46.6834 43.125 45.9375 43.125Z" fill="#333333" style="fill:#333333;fill:color(display-p3 0.2000 0.2000 0.2000);fill-opacity:1;"/>
</svg>
