<svg width="26" height="26" viewBox="0 0 26 26" fill="none" xmlns="http://www.w3.org/2000/svg">
<path d="M18.4496 11.9527C17.5665 11.7821 17.9965 11.3157 17.9965 11.3157C17.9965 11.3157 18.8604 9.9089 17.8237 8.88505C16.5415 7.61862 13.4202 9.0444 13.4202 9.0444C12.23 9.40832 12.5448 8.87753 12.7138 7.97505C12.7138 6.90953 12.3451 5.10847 9.17018 6.17018C5.99904 7.24327 3.27701 10.9933 3.27701 10.9933C1.3844 13.4846 1.63391 15.4109 1.63391 15.4109C2.10607 19.6654 6.68624 20.8332 10.249 21.1101C13.9961 21.3983 19.0562 19.8359 20.5879 16.6205C22.1237 13.4012 19.3364 12.1271 18.4496 11.9527V11.9527ZM10.5254 19.9119C6.80524 20.0824 3.79536 18.2434 3.79536 15.7939C3.79536 13.3406 6.80524 11.3764 10.5254 11.2057C14.2494 11.0351 17.2632 12.5518 17.2632 14.9976C17.2632 17.4434 14.2494 19.745 10.5254 19.9119ZM9.78445 12.8172C6.04124 13.2495 6.47509 16.7077 6.47509 16.7077C6.47509 16.7077 6.43675 17.8036 7.47718 18.361C9.66542 19.5326 11.9229 18.8235 13.0593 17.3713C14.1995 15.9228 13.5315 12.3887 9.78445 12.8172ZM8.84 17.6747C8.14135 17.7543 7.57699 17.3561 7.57699 16.7797C7.57699 16.2071 8.07602 15.6042 8.77474 15.5323C9.57719 15.4563 10.0993 15.9114 10.0993 16.4916C10.1031 17.0641 9.53491 17.595 8.84 17.6747V17.6747ZM11.0476 15.8204C10.8095 15.9948 10.5178 15.9721 10.3949 15.7598C10.2644 15.5549 10.3143 15.2288 10.5523 15.0583C10.8287 14.8534 11.1167 14.9142 11.2434 15.1189C11.3663 15.3237 11.2779 15.6383 11.0476 15.8204ZM20.2731 10.4549C20.5764 10.4549 20.8299 10.235 20.8759 9.94689C20.8798 9.92411 20.8835 9.90512 20.8835 9.88234C21.3405 5.82883 17.5166 6.52659 17.5166 6.52659C17.1787 6.52659 16.9062 6.79573 16.9062 7.13703C16.9062 7.47077 17.1787 7.74001 17.5166 7.74001C20.2616 7.14084 19.6589 9.852 19.6589 9.852C19.6551 10.1857 19.9314 10.4549 20.2731 10.4549V10.4549ZM19.8278 3.37927C18.5071 3.07214 17.1442 3.33763 16.7641 3.40961C16.7334 3.41342 16.7065 3.44003 16.6797 3.44374C16.6681 3.44757 16.6567 3.45889 16.6567 3.45889C16.2804 3.56515 16.0078 3.90638 16.0078 4.3121C16.0078 4.7937 16.4032 5.19178 16.8984 5.19178C16.8984 5.19178 17.3783 5.12734 17.7048 5.00221C18.0272 4.87333 20.7683 4.90745 22.1274 7.15981C22.8685 8.80545 22.4538 9.90512 22.4 10.0833C22.4 10.0833 22.2235 10.5118 22.2235 10.9327C22.2235 11.418 22.6189 11.7252 23.1141 11.7252C23.5249 11.7252 23.8704 11.6683 23.9702 10.982H23.9741C25.4407 6.1777 22.1927 3.92156 19.8278 3.37927V3.37927Z" fill="#333333" style="fill:#333333;fill:color(display-p3 0.2000 0.2000 0.2000);fill-opacity:1;"/>
</svg>
