<svg width="26" height="26" viewBox="0 0 26 26" fill="none" xmlns="http://www.w3.org/2000/svg">
<path d="M17.3296 8.89778C17.6058 8.89778 17.8781 8.91727 18.1478 8.94556C17.413 5.67818 13.7539 3.25 9.57761 3.25C4.90817 3.25 1.08301 6.28917 1.08301 10.148C1.08301 12.3751 2.35589 14.2042 4.48216 15.6229L3.63269 18.0634L6.60191 16.6412C7.66504 16.8418 8.51707 17.0485 9.57761 17.0485C9.84404 17.0485 10.1079 17.036 10.3704 17.0159C10.2043 16.4741 10.1079 15.9059 10.1079 15.3168C10.1079 11.7735 13.2947 8.89778 17.3296 8.89778ZM12.7631 6.69839C13.4028 6.69839 13.8262 7.10067 13.8262 7.71103C13.8262 8.31886 13.4028 8.72618 12.7631 8.72618C12.126 8.72618 11.4876 8.31886 11.4876 7.71103C11.4876 7.10067 12.126 6.69839 12.7631 6.69839ZM6.81817 8.72615C6.18106 8.72615 5.53875 8.31883 5.53875 7.71101C5.53875 7.10065 6.18106 6.69837 6.81817 6.69837C7.45459 6.69837 7.87868 7.10065 7.87868 7.71101C7.87868 8.31886 7.45459 8.72615 6.81817 8.72615ZM25.0829 15.2194C25.0829 11.9766 21.6844 9.33338 17.8677 9.33338C13.8262 9.33338 10.6433 11.9766 10.6433 15.2194C10.6433 18.467 13.8262 21.1045 17.8677 21.1045C18.7132 21.1045 19.5666 20.902 20.416 20.6984L22.7462 21.9166L22.1072 19.89C23.8127 18.6681 25.0829 17.0485 25.0829 15.2194ZM15.5251 14.2042C15.1024 14.2042 14.6757 13.8026 14.6757 13.3927C14.6757 12.9886 15.1024 12.5819 15.5251 12.5819C16.1674 12.5819 16.5883 12.9886 16.5883 13.3927C16.5883 13.8026 16.1674 14.2042 15.5251 14.2042ZM20.1972 14.2042C19.7777 14.2042 19.3536 13.8026 19.3536 13.3927C19.3536 12.9886 19.7777 12.5819 20.1972 12.5819C20.8343 12.5819 21.2603 12.9886 21.2603 13.3927C21.2603 13.8026 20.8343 14.2042 20.1972 14.2042Z" fill="#333333" style="fill:#333333;fill:color(display-p3 0.2000 0.2000 0.2000);fill-opacity:1;"/>
</svg>
