<svg width="24" height="25" viewBox="0 0 24 25" fill="none" xmlns="http://www.w3.org/2000/svg">
<path d="M2.51953 7.60938H21.4796" stroke="#333333" style="stroke:#333333;stroke:color(display-p3 0.2000 0.2000 0.2000);stroke-opacity:1;" stroke-linecap="round" stroke-linejoin="round"/>
<path d="M8.51953 2.60938V7.46937" stroke="#333333" style="stroke:#333333;stroke:color(display-p3 0.2000 0.2000 0.2000);stroke-opacity:1;" stroke-linecap="round" stroke-linejoin="round"/>
<path d="M15.4805 2.60938V7.01941" stroke="#333333" style="stroke:#333333;stroke:color(display-p3 0.2000 0.2000 0.2000);stroke-opacity:1;" stroke-linecap="round" stroke-linejoin="round"/>
<path d="M22 9.5V15.5C22 15.72 22 15.94 21.98 16.15C21.16 15.14 19.91 14.5 18.5 14.5C17.44 14.5 16.46 14.87 15.69 15.49C14.65 16.31 14 17.58 14 19C14 20.41 14.64 21.66 15.65 22.48C15.44 22.5 15.22 22.5 15 22.5H9C4 22.5 2 20.5 2 15.5V9.5C2 4.5 4 2.5 9 2.5H15C20 2.5 22 4.5 22 9.5Z" stroke="#333333" style="stroke:#333333;stroke:color(display-p3 0.2000 0.2000 0.2000);stroke-opacity:1;" stroke-linecap="round" stroke-linejoin="round"/>
<path d="M23 19C23 20.35 22.4 21.55 21.47 22.38C20.67 23.07 19.64 23.5 18.5 23.5C17.42 23.5 16.42 23.12 15.65 22.48C14.64 21.66 14 20.41 14 19C14 17.58 14.65 16.31 15.69 15.49C16.46 14.87 17.44 14.5 18.5 14.5C19.91 14.5 21.16 15.14 21.98 16.15C22.62 16.92 23 17.92 23 19Z" stroke="#333333" style="stroke:#333333;stroke:color(display-p3 0.2000 0.2000 0.2000);stroke-opacity:1;" stroke-miterlimit="10" stroke-linecap="round" stroke-linejoin="round"/>
<path d="M18.7809 17.5898V19.2798L17.3809 20.1198" stroke="#333333" style="stroke:#333333;stroke:color(display-p3 0.2000 0.2000 0.2000);stroke-opacity:1;" stroke-miterlimit="10" stroke-linecap="round" stroke-linejoin="round"/>
</svg>
